<mxfile host="www.draw.io" modified="2020-03-06T07:00:00.401Z" agent="Mozilla/5.0 (Windows NT 10.0; Win64; x64) AppleWebKit/537.36 (KHTML, like Gecko) Chrome/80.0.3987.132 Safari/537.36" etag="bLogxUzXz1esK-xu6fKO" version="12.8.1" type="github">
  <diagram id="RJlxmXMSK_wklDfk8iL2" name="Page-1">
    <mxGraphModel dx="1422" dy="804" grid="1" gridSize="10" guides="1" tooltips="1" connect="1" arrows="1" fold="1" page="1" pageScale="1" pageWidth="827" pageHeight="1169" math="0" shadow="0">
      <root>
        <mxCell id="0" />
        <mxCell id="1" parent="0" />
        <mxCell id="9taNrXXGRFYZlppdcsFO-3" value="" style="edgeStyle=orthogonalEdgeStyle;rounded=0;orthogonalLoop=1;jettySize=auto;html=1;" edge="1" parent="1" source="9taNrXXGRFYZlppdcsFO-1" target="9taNrXXGRFYZlppdcsFO-2">
          <mxGeometry relative="1" as="geometry" />
        </mxCell>
        <mxCell id="9taNrXXGRFYZlppdcsFO-1" value="" style="ellipse;whiteSpace=wrap;html=1;aspect=fixed;" vertex="1" parent="1">
          <mxGeometry x="450" y="246" width="44" height="44" as="geometry" />
        </mxCell>
        <mxCell id="9taNrXXGRFYZlppdcsFO-5" value="" style="edgeStyle=orthogonalEdgeStyle;rounded=0;orthogonalLoop=1;jettySize=auto;html=1;" edge="1" parent="1" source="9taNrXXGRFYZlppdcsFO-2" target="9taNrXXGRFYZlppdcsFO-4">
          <mxGeometry relative="1" as="geometry" />
        </mxCell>
        <mxCell id="9taNrXXGRFYZlppdcsFO-2" value="用cookie登录" style="whiteSpace=wrap;html=1;aspect=fixed;" vertex="1" parent="1">
          <mxGeometry x="432" y="350" width="80" height="80" as="geometry" />
        </mxCell>
        <mxCell id="9taNrXXGRFYZlppdcsFO-7" value="" style="edgeStyle=orthogonalEdgeStyle;rounded=0;orthogonalLoop=1;jettySize=auto;html=1;" edge="1" parent="1" source="9taNrXXGRFYZlppdcsFO-4" target="9taNrXXGRFYZlppdcsFO-6">
          <mxGeometry relative="1" as="geometry" />
        </mxCell>
        <mxCell id="9taNrXXGRFYZlppdcsFO-9" value="" style="edgeStyle=orthogonalEdgeStyle;rounded=0;orthogonalLoop=1;jettySize=auto;html=1;" edge="1" parent="1" source="9taNrXXGRFYZlppdcsFO-4">
          <mxGeometry relative="1" as="geometry">
            <mxPoint x="592" y="520" as="targetPoint" />
          </mxGeometry>
        </mxCell>
        <mxCell id="9taNrXXGRFYZlppdcsFO-4" value="是否登录&lt;br&gt;成功" style="rhombus;whiteSpace=wrap;html=1;" vertex="1" parent="1">
          <mxGeometry x="432" y="480" width="80" height="80" as="geometry" />
        </mxCell>
        <mxCell id="9taNrXXGRFYZlppdcsFO-17" value="" style="edgeStyle=orthogonalEdgeStyle;rounded=0;orthogonalLoop=1;jettySize=auto;html=1;" edge="1" parent="1" source="9taNrXXGRFYZlppdcsFO-6" target="9taNrXXGRFYZlppdcsFO-16">
          <mxGeometry relative="1" as="geometry" />
        </mxCell>
        <mxCell id="9taNrXXGRFYZlppdcsFO-6" value="选择商品" style="whiteSpace=wrap;html=1;aspect=fixed;" vertex="1" parent="1">
          <mxGeometry x="432" y="610" width="80" height="80" as="geometry" />
        </mxCell>
        <mxCell id="9taNrXXGRFYZlppdcsFO-16" value="加购物车购买" style="whiteSpace=wrap;html=1;aspect=fixed;" vertex="1" parent="1">
          <mxGeometry x="432" y="770" width="80" height="80" as="geometry" />
        </mxCell>
        <mxCell id="9taNrXXGRFYZlppdcsFO-12" value="" style="edgeStyle=orthogonalEdgeStyle;rounded=0;orthogonalLoop=1;jettySize=auto;html=1;" edge="1" parent="1" source="9taNrXXGRFYZlppdcsFO-10">
          <mxGeometry relative="1" as="geometry">
            <mxPoint x="750" y="520" as="targetPoint" />
          </mxGeometry>
        </mxCell>
        <mxCell id="9taNrXXGRFYZlppdcsFO-10" value="扫二维码登录" style="whiteSpace=wrap;html=1;aspect=fixed;" vertex="1" parent="1">
          <mxGeometry x="590" y="480" width="80" height="80" as="geometry" />
        </mxCell>
        <mxCell id="9taNrXXGRFYZlppdcsFO-14" style="edgeStyle=orthogonalEdgeStyle;rounded=0;orthogonalLoop=1;jettySize=auto;html=1;exitX=0.5;exitY=1;exitDx=0;exitDy=0;entryX=1;entryY=0.5;entryDx=0;entryDy=0;" edge="1" parent="1" source="9taNrXXGRFYZlppdcsFO-13" target="9taNrXXGRFYZlppdcsFO-6">
          <mxGeometry relative="1" as="geometry" />
        </mxCell>
        <mxCell id="9taNrXXGRFYZlppdcsFO-15" style="edgeStyle=orthogonalEdgeStyle;rounded=0;orthogonalLoop=1;jettySize=auto;html=1;exitX=0.5;exitY=0;exitDx=0;exitDy=0;entryX=0.5;entryY=0;entryDx=0;entryDy=0;" edge="1" parent="1" source="9taNrXXGRFYZlppdcsFO-13" target="9taNrXXGRFYZlppdcsFO-10">
          <mxGeometry relative="1" as="geometry" />
        </mxCell>
        <mxCell id="9taNrXXGRFYZlppdcsFO-13" value="是否登录&lt;br&gt;成功" style="rhombus;whiteSpace=wrap;html=1;" vertex="1" parent="1">
          <mxGeometry x="747" y="480" width="80" height="80" as="geometry" />
        </mxCell>
      </root>
    </mxGraphModel>
  </diagram>
</mxfile>
